<?xml version="1.0" ?><!DOCTYPE svg  PUBLIC '-//W3C//DTD SVG 1.1//EN'  'http://www.w3.org/Graphics/SVG/1.1/DTD/svg11.dtd'><svg enable-background="new 0 0 24 24" height="24px" id="Layer_1" version="1.1" viewBox="0 0 24 24" width="24px" xml:space="preserve" xmlns="http://www.w3.org/2000/svg" xmlns:xlink="http://www.w3.org/1999/xlink"><g><path d="M6.5,11.5c-1.2,0.1-2.3,0.4-3,0.6c-0.1,0.1-0.3,0.1-0.5,0.2l-1.8,6c1.2-0.4,2.2-0.6,3.2-0.6c1.7,0,2.9,0.6,3.9,1.2   c0.5-1.7,1.5-5,1.9-6.3c-0.2-0.1-0.4-0.2-0.6-0.3C8.6,11.7,7.5,11.4,6.5,11.5z"/><path d="M12.5,14.1l-1.8,6.1c0.9,0.5,2.5,1.2,3.7,1.2c1.1,0,2.4-0.3,3.9-0.9l1.7-5.8c-1.1,0.3-2.2,0.5-3.3,0.5   C14.9,15.2,13.4,14.6,12.5,14.1z"/><path d="M11,9.9c0.4-1.2,1-3.3,1.5-4.9l0.4-1.3c-0.5-0.3-1.4-0.7-2.1-0.9c-0.5-0.1-1-0.2-1.6-0.2C8.1,2.6,7,2.9,5.7,3.4l-1.7,6   c1.2-0.4,2.3-0.6,3.3-0.6C8.9,8.8,10.1,9.3,11,9.9z"/><path d="M19.3,6.3c-1.9,0-3.3-0.6-4.2-1.2l-1.8,6.2c2.3,1.4,4.9,1.5,7.6,0.3l1.8-5.9C21.5,6.2,20.4,6.3,19.3,6.3z"/></g></svg>